<svg xmlns="http://www.w3.org/2000/svg" xmlns:xlink="http://www.w3.org/1999/xlink" fill="none"
    version="1.1" width="2819" height="1790" viewBox="0 0 2819 1790">
    <defs>
        <clipPath id="master_svg0_21_07">
            <rect x="0" y="0" width="2819" height="1790" rx="0" />
        </clipPath>
    </defs>
    <g clip-path="url(#master_svg0_21_07)">
        <rect x="0" y="0" width="2819" height="1790" rx="0" fill="#D8D8D8" fill-opacity="0" />
        <g
            transform="matrix(0.0025845470372587442,0.9999322891235352,-0.9999322891235352,0.002953888149932027,2731.5494311461634,-2360.4447779236457)">
            <path
                d="M2549.104736328125,1726.2257763671876C2549.104736328125,1825.5057763671875,2568.257436328125,1921.0157763671875,2606.563136328125,2012.7357763671876C2644.868536328125,2104.4557763671874,2699.410736328125,2185.4257763671876,2770.1907363281252,2255.6257763671874C2840.969736328125,2325.8257763671877,2922.597736328125,2379.9257763671876,3015.075736328125,2417.9257763671876C3107.553736328125,2455.9157763671874,3204.086736328125,2478.1557763671876,3304.1837363281247,2478.1557763671876C3404.281736328125,2478.1557763671876,3500.322736328125,2455.9157763671874,3592.804736328125,2417.9257763671876C3685.274736328125,2379.9257763671876,3766.904736328125,2325.8257763671877,3837.684736328125,2255.6257763671874C3908.4647363281247,2185.4257763671876,3963.004736328125,2104.4557763671874,4001.314736328125,2012.7357763671876C4039.614736328125,1921.0157763671875,4058.774736328125,1825.5057763671875,4058.774736328125,1726.2257763671876L4063.064736328125,193.2050363671875L2553.409456328125,189.0457763671875L2549.104736328125,1726.2257763671876Z"
                fill="#FFFFFF" fill-opacity="1" />
            <path 
                d="M2549.104736328125,1726.2257763671876C2549.104736328125,1825.5057763671875,2568.257436328125,1921.0157763671875,2606.563136328125,2012.7357763671876C2644.868536328125,2104.4557763671874,2699.410736328125,2185.4257763671876,2770.1907363281252,2255.6257763671874C2840.969736328125,2325.8257763671877,2922.597736328125,2379.9257763671876,3015.075736328125,2417.9257763671876C3107.553736328125,2455.9157763671874,3204.086736328125,2478.1557763671876,3304.1837363281247,2478.1557763671876C3404.281736328125,2478.1557763671876,3500.322736328125,2455.9157763671874,3592.804736328125,2417.9257763671876C3685.274736328125,2379.9257763671876,3766.904736328125,2325.8257763671877,3837.684736328125,2255.6257763671874C3908.4647363281247,2185.4257763671876,3963.004736328125,2104.4557763671874,4001.314736328125,2012.7357763671876C4039.614736328125,1921.0157763671875,4058.774736328125,1825.5057763671875,4058.774736328125,1726.2257763671876L4063.054736328125,196.2050263671875L4063.064736328125,193.2050363671875L4060.064736328125,193.1967763671875L2556.409446328125,189.0541775371875L2553.409456328125,189.0457763671875L2553.401056328125,192.0457663671875L2549.104736328125,1726.2257763671876ZM2556.401046328125,192.0540263671875L4060.054736328125,196.1967663671875L4055.774736328125,1726.2257763671876Q4055.764736328125,1874.5557763671875,3998.544736328125,2011.5757763671875Q3941.304736328125,2148.6257763671874,3835.5747363281253,2253.4957763671873Q3729.8247363281253,2358.3857763671876,3591.664736328125,2415.1457763671874Q3520.450736328125,2444.4057763671876,3450.720736328125,2459.3557763671874Q3377.002736328125,2475.1557763671876,3304.1837363281247,2475.1557763671876Q3162.280736328125,2475.1657763671874,3016.215736328125,2415.1457763671874Q2878.048736328125,2358.3757763671874,2772.302736328125,2253.4957763671873Q2666.561736328125,2148.6257763671874,2609.331436328125,2011.5757763671875Q2552.104736328125,1874.5457763671875,2552.104746328125,1726.2257763671876L2556.401046328125,192.0540263671875Z"
                fill-rule="evenodd" fill="#000000" fill-opacity="1" />
        </g>
        <g name="活动展厅">
            <ellipse cx="1570" cy="966.5" rx="224" ry="225.5" fill="#D8D8D8" fill-opacity="1" />
            <ellipse cx="1570" cy="966.5" rx="222.5" ry="224" fill-opacity="0" stroke-opacity="1"
                stroke="#000000" fill="none" stroke-width="3" />
        </g>
        <g
            transform="matrix(0.9408304691314697,0.3388776183128357,-0.3388776183128357,0.9408304691314697,87.92990375333557,-181.5588057370187)">
            <path d="" fill="#D8D8D8" fill-opacity="0" />
            <path name="常驻展厅A"
                d="M563.9241078367188,573.916051147461Q561.3043476367187,438.2780511474609,712.8085776367187,387.752051147461L773.0985776367188,214.78155114746093L956.9575776367187,270.79005114746093L1003.5125776367188,161.01805114746094L1220.2875776367187,237.58875114746093Q1212.3395776367188,308.4760511474609,1252.1415776367187,326.02705114746095Q1291.6455776367188,343.44505114746096,1471.4465776367188,429.16705114746094L1474.170577636719,430.4660511474609Q1473.3765776367186,431.7450511474609,1472.5975776367186,433.03905114746095Q1441.7525776367188,484.32305114746094,1436.4055776367186,557.266051147461Q1431.0615776367188,630.1630511474609,1450.4075776367188,686.0860511474609Q1450.9075776367188,687.531051147461,1451.4255776367188,688.969051147461L1448.3985776367188,689.415051147461L712.8085776367187,797.752051147461Q566.5438676367188,709.5540511474609,563.9241078367188,573.916051147461ZM715.1555776367188,390.13205114746097L774.9825776367188,218.49155114746094L958.6655776367188,274.44605114746093L1005.1735776367187,164.78624114746094L1217.0515776367188,239.62745114746093Q1209.795577636719,310.63305114746095,1250.9315776367189,328.77205114746096Q1290.3715776367187,346.16205114746094,1469.8775776367188,431.7420511474609Q1438.8005776367188,483.56405114746093,1433.4135776367189,557.0470511474609Q1428.0505776367188,630.208051147461,1447.3885776367188,686.531051147461L713.4375776367187,794.627051147461Q569.5030676367187,707.4120511474609,566.9235576367188,573.8580511474609Q565.6346476367188,507.12305114746096,602.1781776367187,461.4300511474609Q638.8456776367187,415.58005114746095,713.7575776367187,390.598051147461L715.1555776367188,390.13205114746097Z"
                fill-rule="evenodd" fill="#000000" fill-opacity="1" />
        </g>
        <g>
            <path d="" fill="#D8D8D8" fill-opacity="0" />
            <path name="常驻展厅B"
                d="M705,887L731.5,926L882,904L1222,969.5Q1227,1023.5,1240,1063Q1252.638,1101.401,1280.871,1150.67Q1281.6770000000001,1152.077,1282.5,1153.5L1279.255,1153.879L469,1248.5Q291.5,1186.5,291.5,1020.5Q291.5,854.5001,469,831.5L705,887ZM730.075,929.2402L881.931,907.0418999999999L1219.225,972.02Q1224.316,1024.941,1237.15,1063.938Q1249.739,1102.19,1277.6309999999999,1151.048L469.339,1245.44Q381.9114,1214.751,338.2422,1158.657Q294.5,1102.47,294.5,1020.5Q294.5,938.688,338.0618,892.3038Q381.56669999999997,845.9802999999999,468.845,834.54549L703.175,889.6528L730.075,929.2402Z"
                fill-rule="evenodd" fill="#000000" fill-opacity="1" />
        </g>
        <g
            transform="matrix(0.9752145409584045,-0.22126130759716034,0.22126130759716034,0.9752145409584045,-267.1205548319522,129.7952528180149)">
            <path d="" fill="#D8D8D8" fill-opacity="0" />
            <path name='常驻展厅C'
                d="M449.04871521484375,1350.95091875L656.9610952148437,1359.25421875L673.4160952148437,1359.91121875L657.3560952148438,1356.26761875L457.8929952148437,1311.01241875L454.96737521484374,1310.34861875L455.63116521484375,1307.42301875L467.02619521484377,1257.19921875L1286.8290952148436,1348.32811875Q1325.2000952148437,1417.53721875,1340.8050952148437,1436.97121875Q1356.0400952148439,1455.94321875,1420.576095214844,1501.2422187500001Q1422.1400952148438,1502.34021875,1423.7440952148436,1503.46121875L1420.0220952148438,1504.51821875L869.7060952148438,1660.80021875Q714.2290952148437,1695.25421875,629.5980952148437,1652.46821875Q544.9676952148437,1609.68121875,503.1515952148437,1500.21621875L446.9559452148437,1353.86971875L445.78509521484375,1350.82051875L449.04871521484375,1350.95091875ZM705.9310952148437,1364.21221875L458.55679521484376,1308.08681875L469.3587952148437,1260.47698875L1284.9580952148438,1351.13851875Q1322.8540952148437,1419.40521875,1338.4660952148438,1438.84921875Q1353.7270952148438,1457.85421875,1416.8600952148438,1502.29721875L868.9710952148437,1657.89021875Q714.6020952148438,1692.08221875,630.9520952148438,1649.79021875Q547.3560952148438,1607.52721875,505.95229521484373,1499.14121875L450.21955521484375,1354.00001875L705.9310952148437,1364.21221875Z"
                fill-rule="evenodd" fill="#000000" fill-opacity="1" />
        </g>
        <g>
            <path d="" fill="#D8D8D8" fill-opacity="0" />
            <path name="常驻展厅D"
                d="M1234.5223,1497.788C1224.79961,1504.841,1222.53198,1518.3899999999999,1229.4279,1528.225L1240.8503,1544.516C1245.0126,1550.452,1245.9118,1557.987,1243.741,1564.904Q1229.6,1609.967,1247.5,1631Q1265.1375,1651.724,1301.8287,1649.117C1308.3225,1648.656,1314.8062,1650.504,1319.664,1654.838L1338.241,1671.415C1342.272,1675.012,1347.4859999999999,1677,1352.888,1677L1839.019,1677C1841.6509999999998,1677,1844.288,1676.5149999999999,1846.758,1675.603Q1921.548,1648,1963.5,1648Q1985.8600000000001,1648,2001.595,1655.842C2015.284,1662.663,2034.828,1664.105,2044.0990000000002,1651.94L2101.07,1577.188C2102.677,1575.08,2103.889,1572.699,2104.649,1570.159L2117.804,1526.194C2120.591,1516.88,2129.334,1511.075,2138.748,1508.652Q2166,1501.6390000000001,2166,1468C2166,1446.75,2147.438,1431.688,2142,1432C2139.015,1432.172,2137.575,1432.155,2133.284,1432.105C2129.759,1432.064,2124.31,1432,2114.5,1432Q2105.7129999999997,1432,2098.558,1433.469C2095.505,1434.096,2092.045,1434.932,2088.337,1435.829C2069.969,1440.269,2045.538,1446.176,2034.586,1435.2930000000001L2010.193,1411.0529999999999C1999.388,1400.316,2004.1309999999999,1381.6,2011.318,1368.169Q2012.896,1365.22,2014,1362Q2019.8229999999999,1345.017,2002.571,1319.557C2001.867,1318.518,2001.056,1317.551,2000.172,1316.659L1859.9270000000001,1175.0696C1851.596,1166.65931,1838.129,1166.37731,1829.1390000000001,1174.0781Q1803.75,1195.825,1773.5,1217Q1734.681,1244.1731,1693.037,1257.69C1691.358,1258.2349,1689.6100000000001,1258.5569,1687.848,1258.6694L1534.701,1268.455C1534.234,1268.485,1533.766,1268.5,1533.298,1268.5L1502.634,1268.5C1496.787,1268.5,1491.18,1270.828,1487.0520000000001,1274.97L1345.741,1416.755C1344.915,1417.584,1344.024,1418.345,1343.077,1419.032L1234.5223,1497.788ZM1236.284,1500.216Q1233.1882,1502.462,1231.2166,1505.6970000000001Q1229.3099,1508.826,1228.702,1512.459Q1228.0941,1516.091,1228.878,1519.67Q1229.6886,1523.371,1231.8843,1526.503L1243.3067,1542.7939999999999Q1246.8085,1547.788,1247.6433,1553.939Q1248.4534,1559.907,1246.6034,1565.8020000000001Q1232.9584,1609.285,1249.7846,1629.056Q1266.4386,1648.624,1301.6161,1646.125Q1307.1617,1645.731,1312.2515,1647.315Q1317.606,1648.982,1321.661,1652.6L1340.238,1669.1770000000001Q1342.849,1671.507,1346.119,1672.7530000000002Q1349.3890000000001,1674,1352.888,1674L1839.019,1674Q1842.438,1674,1845.719,1672.789Q1921.0149999999999,1645,1963.5,1645Q1986.566,1645,2002.933,1653.157Q2007.882,1655.623,2013.385,1656.8980000000001Q2019.1,1658.223,2024.385,1658.013Q2029.935,1657.7930000000001,2034.267,1655.893Q2038.844,1653.886,2041.713,1650.121L2098.684,1575.37Q2100.783,1572.616,2101.775,1569.299L2114.93,1525.334Q2117.188,1517.788,2123.936,1512.481Q2129.823,1507.8519999999999,2138.001,1505.747Q2150.5190000000002,1502.525,2156.695,1493.312Q2163,1483.907,2163,1468Q2163,1461.154,2160.244,1454.517Q2157.867,1448.7930000000001,2153.735,1443.835Q2150.199,1439.594,2146.359,1436.987Q2144.751,1435.895,2143.45,1435.359Q2142.517,1434.975,2142.172,1434.995Q2139.084,1435.173,2133.249,1435.104L2114.483,1435Q2106.018,1435,2099.161,1436.408Q2096.16,1437.024,2089.042,1438.745Q2079.419,1441.071,2074.318,1442.091Q2065.553,1443.842,2058.886,1444.3Q2050.517,1444.875,2044.376,1443.522Q2036.969,1441.8899999999999,2032.471,1437.421L2008.078,1413.181Q2003.643,1408.774,2001.909,1402.513Q2000.386,1397.0149999999999,2001.022,1390.337Q2001.579,1384.494,2003.748,1378.067Q2005.6779999999999,1372.352,2008.673,1366.754Q2010.137,1364.018,2011.162,1361.027Q2016.5,1345.46,2000.088,1321.24Q1999.223,1319.964,1998.04,1318.77L1857.795,1177.1808Q1855.144,1174.5045,1851.6970000000001,1173.0467Q1848.363,1171.6365,1844.694,1171.531Q1841.03,1171.4255,1837.557,1172.6347Q1833.982,1173.8794,1831.0900000000001,1176.3565Q1805.589,1198.1998,1775.22,1219.4577Q1736.033,1246.8881,1693.963,1260.5430000000001Q1691.1190000000001,1261.467,1688.04,1261.663L1534.892,1271.449Q1534.096,1271.5,1533.298,1271.5L1502.634,1271.5Q1498.847,1271.5,1495.349,1272.952Q1491.851,1274.405,1489.1770000000001,1277.087L1347.866,1418.873Q1346.456,1420.288,1344.839,1421.46L1236.284,1500.216Z"
                fill-rule="evenodd" fill="#000000" fill-opacity="1" />
        </g>
        <g>
            <path d="" fill="#D8D8D8" fill-opacity="0" />
            <path name="办公区域"
                d="M1216.534567,238.91957Q1217.57564,240.3402,1220.64419,241.5496Q1236.4445,247.7771,1306,248.405Q1383.75,243.7175,1423.25,247.5925Q1423.25,248.405,1464,263.905Q1732,214.155,1762,237.40496Q1822,283.905,1818,422.905L1755.7730000000001,668.448L1755,671.5Q1753.74,670.6949999999999,1752.307,669.915Q1730.413,658.005,1668,651.905Q1601.5,645.405,1559,651.905Q1446.959,653.485,1368.818,681.96Q1367.404,682.476,1366,683L1365.098,680.135L1306,492.405L1219.9901,248.7102L1218.24312,243.7605L1216.534567,238.91957ZM1306.1805,251.3996Q1382.911,246.7736,1422.16,250.5012Q1422.319,250.5911,1422.503,250.6868Q1423.226,251.0628,1424.588,251.6625Q1427.182,252.8041,1432.323,254.862Q1442.534,258.9496,1462.933,266.709L1463.72,267.0082L1464.548,266.8546Q1598.408,242.0055,1672.766,235.39319Q1709.8,232.09991,1731.958,233.3378Q1753.4,234.53573,1760.162,239.77621Q1818.888,285.289,1815.011,422.48900000000003L1753.065,666.923Q1730.297,654.98,1668.292,648.919Q1601.577,642.398,1558.751,648.908Q1446.429,650.518,1367.916,679.096L1308.8461,491.455L1226.1272,257.0848L1221.91908,245.1618Q1222.79666,245.4347,1223.76213,245.6892Q1230.375,247.4322,1241.7854,248.642Q1264.296,251.02870000000001,1305.9729,251.4049L1306.0768,251.4058L1306.1805,251.3996ZM1216,237.40496L1216.534567,238.91957Q1216,238.19011,1216,237.40496Z"
                fill-rule="evenodd" fill="#000000" fill-opacity="1" />
        </g>
        <g>
            <path d="" fill="#D8D8D8" fill-opacity="0" />
            <path name="文物仓库"
                d="M2292.5,387.5L2187,348.5L2143.5,420L1912.771,742.028L1911,744.5L1798,631.5Q1870,375,1870,348.5C1870,322,1817.5,319,1817.5,289Q1817.5,259.07404,2423,257.0100431Q2424.498,257.00493625,2426,257L2426,325.5L2292.5,387.5ZM2185.7219999999998,344.8291L2140.996,418.344L1910.621,739.8779999999999L1801.36283,630.62Q1873,375.324,1873,348.5Q1873,338.63030000000003,1864.3022,330.4724Q1861.0029,327.3778,1855.8982,323.9966Q1852.895,322.0072,1846.5028,318.209Q1839.7858,314.2177,1836.6438,312.1142Q1831.5078,308.67560000000003,1828.2516,305.525Q1824.476,301.8718,1822.5812,298.0336Q1820.5,293.81759999999997,1820.5,289Q1820.5,288.9551,1820.6062,288.7924Q1820.9075,288.3309,1821.6659,287.7677Q1823.6743,286.27570000000003,1827.9948,284.77049999999997Q1837.2396,281.5496,1855.9797,278.7163Q1893.8662,272.9882,1969.783,268.9959Q2121.083,261.03934,2423,260.01006L2423,323.5855L2292.369,384.253L2185.7219999999998,344.8291Z"
                fill-rule="evenodd" fill="#000000" fill-opacity="1" />
        </g>
        <g name="文物修缮中心">
            <rect x="2131" y="475" width="391" height="194" rx="0" fill="#D8D8D8" fill-opacity="1" />
            <rect x="2133" y="477" width="387" height="190" rx="0" fill-opacity="0"
                stroke-opacity="1" stroke="#000000" fill="none" stroke-width="4" />
        </g>
        <g name = '临时展厅' transform="matrix(-1,0,0,-1,4636.5234375,2206)">
            <path
                d="M2391.52251875,1103C2280.86081875,1193.6531,2307.72171875,1271.006,2391.52251875,1342L2780.52271875,1342Q2721.52271875,1285.75,2721.52271875,1226Q2721.52271875,1166.25,2780.52271875,1103L2391.52251875,1103Z"
                fill="#FFFFFF" fill-opacity="1" />
            <path
                d="M2780.52271875,1103L2391.52251875,1103C2280.86081875,1193.6531,2307.72171875,1271.006,2391.52251875,1342L2780.52271875,1342Q2778.95071875,1340.501,2777.41971875,1339Q2721.52271875,1284.158,2721.52271875,1226Q2721.52271875,1167.6679,2777.75571875,1106Q2779.12271875,1104.50087,2780.52271875,1103ZM2773.15871875,1339L2392.62461875,1339Q2360.57231875,1311.703,2343.09481875,1285.777Q2323.94456875,1257.369,2321.58830875,1229.618Q2319.06808475,1199.9366,2335.67471875,1170.0621Q2353.28421875,1138.3834,2392.59671875,1106L2773.70971875,1106Q2718.52271875,1167.4686,2718.52271875,1226Q2718.52171875,1284.277,2773.15871875,1339Z"
                fill-rule="evenodd" fill="#000000" fill-opacity="1" />
        </g>
        <g name="文创商店">
            <rect x="2217" y="1491" width="288" height="175" rx="0" fill="#FFFFFF" fill-opacity="1" />
            <rect x="2218.5" y="1492.5" width="285" height="172" rx="0" fill-opacity="0"
                stroke-opacity="1" stroke="#000000" fill="none" stroke-width="3" />
        </g>
    </g>
</svg>